<svg width="36" height="48" viewBox="0 0 36 48" fill="none" xmlns="http://www.w3.org/2000/svg">
<path d="M2.72 35.08C2.72 35 2.72 34.9 2.72 34.78C2.72 34.6467 2.72667 34.46 2.74 34.22C2.76667 33.98 2.8 33.66 2.84 33.26C2.89333 32.86 2.96 32.3467 3.04 31.72L4.26 21.84H2.08C1.88 21.84 1.71333 21.7733 1.58 21.64C1.46 21.4933 1.42 21.28 1.46 21L1.64 19.42L4.74 18.96L6.3 12.9C6.36667 12.6733 6.47333 12.5 6.62 12.38C6.78 12.2467 6.97333 12.18 7.2 12.18H9.28L8.42 19H13.64L13.32 21.84H8.08L6.88 31.52C6.81333 32.0667 6.76 32.5067 6.72 32.84C6.68 33.1733 6.64667 33.44 6.62 33.64C6.60667 33.8267 6.59333 33.96 6.58 34.04C6.58 34.12 6.58 34.18 6.58 34.22C6.58 34.8467 6.73333 35.32 7.04 35.64C7.34667 35.96 7.75333 36.12 8.26 36.12C8.59333 36.12 8.88 36.0733 9.12 35.98C9.37333 35.8867 9.59333 35.7867 9.78 35.68C9.96667 35.56 10.12 35.4533 10.24 35.36C10.3733 35.2667 10.4933 35.22 10.6 35.22C10.72 35.22 10.8133 35.2533 10.88 35.32C10.9467 35.3733 11.0133 35.4667 11.08 35.6L11.9 37.48C11.22 38.0667 10.46 38.52 9.62 38.84C8.78 39.16 7.93333 39.32 7.08 39.32C5.74667 39.32 4.69333 38.96 3.92 38.24C3.14667 37.5067 2.74667 36.4533 2.72 35.08ZM34.0169 18.68L31.5569 39H29.6169C28.6702 39 28.1969 38.5333 28.1969 37.6L28.4369 34.28C27.3835 35.9333 26.1969 37.18 24.8769 38.02C23.5702 38.86 22.2235 39.28 20.8369 39.28C19.9835 39.28 19.2235 39.1133 18.5569 38.78C17.9035 38.4333 17.3702 37.9333 16.9569 37.28C16.5435 36.6267 16.2569 35.8267 16.0969 34.88C15.9502 33.92 15.9502 32.8267 16.0969 31.6L17.6369 18.68H21.5169L19.9969 31.6C19.8102 33.12 19.8969 34.24 20.2569 34.96C20.6169 35.68 21.2969 36.04 22.2969 36.04C22.8969 36.04 23.5102 35.88 24.1369 35.56C24.7635 35.2267 25.3702 34.76 25.9569 34.16C26.5435 33.56 27.0835 32.8333 27.5769 31.98C28.0835 31.1267 28.5169 30.18 28.8769 29.14L30.1169 18.68H34.0169Z" fill="white"/>
<path d="M30 34.5L29.5 39" stroke="white" stroke-width="2.9"/>
<path d="M3.67889 39.1204C3.1986 38.4969 2.30384 38.3808 1.68038 38.8611C1.05691 39.3414 0.940839 40.2362 1.42112 40.8596L3.67889 39.1204ZM29.5406 36.9842C26.2955 40.241 20.9349 42.3162 15.7011 42.7406C10.3981 43.1706 5.80238 41.8769 3.67889 39.1204L1.42112 40.8596C4.43519 44.7723 10.2924 46.0385 15.9315 45.5813C21.6398 45.1184 27.7103 42.8589 31.5595 38.9958L29.5406 36.9842Z" fill="white"/>
<path d="M11 36.47L18 31" stroke="white" stroke-width="2.7"/>
</svg>
